<svg xmlns="http://www.w3.org/2000/svg" xmlns:xlink="http://www.w3.org/1999/xlink" preserveAspectRatio="xMidYMid" width="28" height="36.97" viewBox="0 0 28 36.97">
  <defs>
    <style>
      .cls-1 {
        fill: #4bb2e5;
        fill-rule: evenodd;
      }
    </style>
  </defs>
  <path d="M27.222,36.969 L0.778,36.969 C0.348,36.969 0.000,36.624 0.000,36.198 L0.000,0.771 C0.000,0.345 0.348,-0.000 0.778,-0.000 L21.000,-0.000 C21.206,-0.000 21.404,0.081 21.550,0.226 L27.772,6.392 C27.918,6.537 28.000,6.733 28.000,6.937 L28.000,36.198 C28.000,36.624 27.652,36.969 27.222,36.969 ZM15.993,1.979 L8.990,1.979 L8.990,17.181 L11.895,14.642 C12.198,14.341 12.691,14.341 12.994,14.642 L15.993,17.181 L15.993,1.979 ZM26.007,7.257 L20.678,1.979 L17.986,1.979 L17.986,19.292 C17.986,19.603 17.797,19.885 17.506,20.004 C17.410,20.044 17.309,20.062 17.208,20.062 C17.006,20.062 16.807,19.984 16.658,19.837 L12.444,16.996 L8.324,19.837 C8.101,20.057 7.767,20.124 7.477,20.004 C7.186,19.885 6.996,19.603 6.996,19.292 L6.996,1.979 L1.962,1.979 L1.962,35.021 L26.007,35.021 L26.007,7.257 Z" class="cls-1"/>
</svg>
