<svg xmlns="http://www.w3.org/2000/svg" viewBox="0 0 498.51 498.51"><title>Asset 2</title><g id="Layer_2" data-name="Layer 2"><g id="Layer_1-2" data-name="Layer 1"><path d="M321,257.22a11,11,0,0,1,0-15.93L491.69,70.57a24.59,24.59,0,0,0,6.83-15.93,24.59,24.59,0,0,0-6.83-15.93L459.82,6.83A24.59,24.59,0,0,0,443.88,0c-6.83,0-11.38,2.28-15.93,6.83L257.22,177.55a11,11,0,0,1-15.93,0L70.57,6.83A24.59,24.59,0,0,0,54.63,0,24.59,24.59,0,0,0,38.7,6.83L6.83,38.7A24.59,24.59,0,0,0,0,54.63,24.59,24.59,0,0,0,6.83,70.57L177.55,241.29a11,11,0,0,1,0,15.93L6.83,427.95a22,22,0,0,0,0,31.87L38.7,491.69a24.59,24.59,0,0,0,15.93,6.83,24.59,24.59,0,0,0,15.93-6.83L241.29,321a11,11,0,0,1,15.93,0L427.95,491.69a22,22,0,0,0,31.87,0l31.87-31.87a22,22,0,0,0,0-31.87Z"/></g></g></svg>