<svg width="16" height="26" viewBox="0 0 16 26" fill="none" xmlns="http://www.w3.org/2000/svg">
<path d="M13.0192 4.64745H15.5632V0.00282692H10.94C10.5543 -0.0132204 5.85299 -0.103085 4.63446 4.54368C4.61681 4.59236 4.2274 5.69748 4.2274 8.27896L6.12156e-08 8.2918V13.1632L4.23274 13.1509V26H10.6982V13.1622H14.9775V8.27789H10.6982V6.74109C10.6982 5.78574 11.101 4.64745 13.0192 4.64745ZM13.9077 9.34717V12.0918H9.62838V24.9296H5.30256V12.0779L1.06982 12.0902V9.35841L5.3138 9.3461L5.30256 8.8021C5.24693 6.06764 5.63688 4.91758 5.65454 4.86249C6.70617 0.860288 10.7217 1.06141 10.894 1.07211L14.4934 1.07318V3.57817H13.0192C10.5195 3.57817 9.62892 5.21178 9.62892 6.74056V9.34717H13.9077Z" fill="black"/>
</svg>
