<svg width="27" height="26" viewBox="0 0 27 26" fill="none" xmlns="http://www.w3.org/2000/svg">
<path d="M4.09362 0H1.4383C0.64502 0 0 0.645021 0 1.4383V4.09362C0 4.88689 0.64502 5.53191 1.4383 5.53191H4.09362C4.88689 5.53191 5.53191 4.88689 5.53191 4.09362V1.4383C5.53191 0.645021 4.88689 0 4.09362 0ZM4.42553 4.09362C4.42553 4.27672 4.27672 4.42553 4.09362 4.42553H1.4383C1.25519 4.42553 1.10638 4.27672 1.10638 4.09362V1.4383C1.10638 1.25519 1.25519 1.10638 1.4383 1.10638H4.09362C4.27672 1.10638 4.42553 1.25519 4.42553 1.4383V4.09362Z" transform="translate(18.2553 2.76587)" fill="black"/>
<path d="M20.9106 0H5.64255C2.5314 0 0 2.5386 0 5.6597V9.40425V10.5106V20.3409C0 23.4614 2.5314 26 5.64255 26H20.9106C24.0218 26 26.5532 23.4614 26.5532 20.3409V10.5106V9.40425V5.6597C26.5532 2.5386 24.0218 0 20.9106 0ZM25.4468 20.3409C25.4468 22.8512 23.4116 24.8936 20.9106 24.8936H5.64255C3.14102 24.8936 1.10638 22.8512 1.10638 20.3409V10.5106H7.86694C6.42808 11.9174 5.53191 13.8763 5.53191 16.0426C5.53191 20.3132 9.00596 23.7872 13.2766 23.7872C17.5472 23.7872 21.0213 20.3132 21.0213 16.0426C21.0213 13.8763 20.1251 11.9174 18.6863 10.5106H25.4468V20.3409ZM19.9149 16.0426C19.9149 19.703 16.9371 22.6809 13.2766 22.6809C9.61613 22.6809 6.6383 19.703 6.6383 16.0426C6.6383 12.3821 9.61613 9.40425 13.2766 9.40425C16.9371 9.40425 19.9149 12.3821 19.9149 16.0426ZM17.2452 9.40425C16.0829 8.70668 14.7282 8.29787 13.2766 8.29787C11.825 8.29787 10.4703 8.70668 9.308 9.40425H1.10638V5.6597C1.10638 3.14877 3.14157 1.10638 5.64255 1.10638H20.9106C23.4116 1.10638 25.4468 3.14877 25.4468 5.6597V9.40425H17.2452Z" fill="black"/>
<path d="M0 4.97873C0 7.72366 2.23324 9.95745 4.97873 9.95745C7.72422 9.95745 9.95745 7.72366 9.95745 4.97873C9.95745 2.23379 7.72422 0 4.97873 0C2.23324 0 0 2.23379 0 4.97873ZM8.85107 4.97873C8.85107 7.11405 7.11349 8.85107 4.97873 8.85107C2.84396 8.85107 1.10638 7.11405 1.10638 4.97873C1.10638 2.84341 2.84396 1.10638 4.97873 1.10638C7.11349 1.10638 8.85107 2.84341 8.85107 4.97873Z" transform="translate(8.29788 11.0637)" fill="black"/>
</svg>
