<svg width="32" height="26" viewBox="0 0 32 26" fill="none" xmlns="http://www.w3.org/2000/svg">
<path d="M31.1359 3.038C30.9256 2.89542 30.647 2.90315 30.4438 3.05641C30.1771 3.25839 29.7434 3.41879 29.2765 3.54235C30.4925 2.17959 30.5187 1.2695 30.5056 1.06039C30.4919 0.844152 30.3618 0.652272 30.1658 0.560194C29.9692 0.467521 29.7387 0.490095 29.5634 0.617223C28.1953 1.61167 26.8325 1.82137 26.0223 1.84276C24.7783 0.652272 23.1631 -1.08775e-07 21.4439 -1.08775e-07C17.7631 -1.08775e-07 14.7691 3.03443 14.7691 6.76391C14.7691 7.0847 14.7916 7.40489 14.8362 7.72212C8.45724 7.65024 3.27707 1.53801 3.22361 1.47444C3.09886 1.32593 2.90995 1.24633 2.71629 1.26355C2.52262 1.28019 2.34975 1.39009 2.25292 1.5588C0.417293 4.74293 1.6458 7.53974 2.76856 9.14132C2.57015 9.03557 2.40916 8.93102 2.31292 8.86033C2.13471 8.72726 1.89649 8.70528 1.6957 8.80389C1.4955 8.90251 1.36778 9.10449 1.36362 9.32726C1.31432 12.3617 2.7745 14.0999 4.14796 15.0611C3.96499 15.0438 3.77905 15.1116 3.65192 15.25C3.50935 15.405 3.45885 15.6242 3.52064 15.8256C4.46934 18.9307 6.79863 19.9858 8.2808 20.344C5.2333 22.7167 0.748182 21.9527 0.698875 21.9444C0.427986 21.8963 0.160661 22.0388 0.0501667 22.2901C-0.0597335 22.5408 0.0151175 22.8349 0.23373 23.0012C3.45054 25.4564 7.29823 26 10.0772 26C12.1796 26 13.6713 25.6887 13.8138 25.6572C27.8917 22.321 28.288 9.42587 28.2553 7.31282C30.8983 4.85521 31.3111 3.91898 31.3747 3.6873C31.443 3.44195 31.3468 3.18057 31.1359 3.038ZM27.2519 6.62312C27.1195 6.7449 27.05 6.92015 27.0619 7.10014C27.0993 7.67044 27.8193 21.1181 13.5519 24.4988C13.4871 24.5125 7.81566 25.6958 2.89926 23.2602C4.97667 23.2026 7.95526 22.6584 10.0303 20.3286C10.1871 20.1533 10.2251 19.9014 10.1277 19.6876C10.0315 19.4755 9.8194 19.3395 9.58713 19.3395C9.58535 19.3395 9.58297 19.3395 9.58119 19.3395C9.55148 19.3585 6.4321 19.3359 5.00399 16.3686C5.57904 16.4013 6.28834 16.3656 6.85329 16.1054C7.08616 15.9979 7.22338 15.7537 7.19487 15.4989C7.16635 15.2446 6.97744 15.0373 6.72675 14.9844C6.56695 14.9506 3.09411 14.1741 2.60817 10.3859C3.13509 10.6164 3.80935 10.8047 4.47588 10.7031C4.70518 10.6686 4.8929 10.5041 4.95766 10.2813C5.02241 10.0585 4.95172 9.81854 4.77647 9.66646C4.62796 9.53696 1.36659 6.63856 2.91292 2.90018C4.59172 4.66155 9.56396 9.23874 15.5883 8.893C15.7647 8.8829 15.9281 8.79379 16.0332 8.65122C16.1378 8.50865 16.1734 8.32687 16.1306 8.15519C16.0166 7.70073 15.9584 7.23262 15.9584 6.7645C15.9584 3.68968 18.4201 1.1887 21.4457 1.1887C22.9254 1.1887 24.3138 1.77919 25.3539 2.85206C25.4632 2.96493 25.6135 3.02968 25.7704 3.03265C26.4001 3.04156 27.4349 2.9673 28.604 2.4986C28.2666 2.91859 27.7712 3.42176 27.0422 3.99443C26.8361 4.1566 26.7607 4.43403 26.8563 4.67818C26.952 4.92293 27.1991 5.07679 27.4569 5.05363C27.5953 5.04234 28.3011 4.98056 29.0989 4.80769C28.6628 5.2758 28.067 5.87342 27.2519 6.62312Z" fill="black"/>
</svg>
